<svg width="16" height="16" viewBox="0 0 16 16" fill="none" xmlns="http://www.w3.org/2000/svg">
<path d="M5 6.6665C5.62126 6.6665 5.93188 6.6665 6.17691 6.56501C6.50362 6.42968 6.76318 6.17012 6.89851 5.84341C7 5.59839 7 5.28776 7 4.6665C7 4.6665 7 3.73462 6.89851 3.48959C6.76318 3.16289 6.50362 2.90332 6.17691 2.768C5.93188 2.6665 5.62126 2.6665 5 2.6665L4 2.6665C3.37874 2.6665 3.06812 2.6665 2.82309 2.768C2.49638 2.90332 2.23682 3.16289 2.10149 3.48959C2 3.73462 2 4.04525 2 4.6665C2 5.28776 2 5.59839 2.10149 5.84341C2.23682 6.17012 2.49638 6.42968 2.82309 6.56501C3.06812 6.6665 3.37874 6.6665 4 6.6665L5 6.6665Z" stroke="#4F4F4F" stroke-width="1.5" stroke-linecap="round" stroke-linejoin="round"/>
<path d="M12 13.3332C12.6213 13.3332 12.9319 13.3332 13.1769 13.2317C13.5036 13.0964 13.7632 12.8368 13.8985 12.5101C14 12.2651 14 11.9544 14 11.3332C14 10.7119 14 10.4013 13.8985 10.1563C13.7632 9.82956 13.5036 9.56999 13.1769 9.43467C12.9319 9.33317 12.6213 9.33317 12 9.33317H4C3.37874 9.33317 3.06812 9.33317 2.82309 9.43466C2.49638 9.56999 2.23682 9.82956 2.10149 10.1563C2 10.4013 2 10.7119 2 11.3332C2 11.9544 2 12.2651 2.10149 12.5101C2.23682 12.8368 2.49638 13.0963 2.82309 13.2317C3.06812 13.3332 3.37874 13.3332 4 13.3332L12 13.3332Z" stroke="#4F4F4F" stroke-width="1.5" stroke-linecap="round" stroke-linejoin="round"/>
<path d="M12 6.6665C12.6213 6.6665 12.9319 6.6665 13.1769 6.56501C13.5036 6.42968 13.7632 6.17012 13.8985 5.84341C14 5.59839 14 5.28776 14 4.6665C14 4.6665 14 3.73462 13.8985 3.48959C13.7632 3.16289 13.5036 2.90332 13.1769 2.768C12.9319 2.6665 12.6213 2.6665 12 2.6665L11 2.6665C10.3787 2.6665 10.0681 2.6665 9.82309 2.768C9.49639 2.90332 9.23682 3.16289 9.10149 3.48959C9 3.73462 9 4.04525 9 4.6665C9 5.28776 9 5.59839 9.10149 5.84341C9.23682 6.17012 9.49639 6.42968 9.82309 6.56501C10.0681 6.6665 10.3787 6.6665 11 6.6665L12 6.6665Z" stroke="#4F4F4F" stroke-width="1.5" stroke-linecap="round" stroke-linejoin="round"/>
</svg>
