<svg width="186" height="136" viewBox="0 0 186 136" fill="none" xmlns="http://www.w3.org/2000/svg">
<path fill-rule="evenodd" clip-rule="evenodd" d="M12.6408 12.6408C29.4952 -4.2136 56.8025 -4.2136 73.6568 12.6408C83.6158 22.5997 88.9817 25.1875 92.8512 25.1875C96.7207 25.1875 102.087 22.5997 112.045 12.6408C128.9 -4.2136 156.207 -4.2136 173.062 12.6408C189.651 29.2962 189.708 57.0105 173.062 73.6568L123.359 123.359C106.505 140.214 79.1975 140.214 62.3431 123.359L12.6408 73.6568C-4.2136 56.8025 -4.2136 29.4952 12.6408 12.6408ZM135.894 88.1966L161.748 62.3431C172.34 51.7509 172.344 34.5625 161.748 23.9545C151.142 13.3485 133.965 13.3485 123.359 23.9545C112.156 35.1576 112.017 51.2964 123.009 62.2883C130.431 69.7107 134.762 78.8275 135.894 88.1966ZM98.9715 40.4333C98.1022 52.1877 102.273 64.1805 111.695 73.602C122.898 84.8049 123.038 101.053 112.045 112.046C101.439 122.652 84.2628 122.652 73.6569 112.046L23.9545 62.3431C13.3485 51.7371 13.3485 34.5605 23.9545 23.9545C34.5605 13.3485 51.7371 13.3485 62.3431 23.9545C72.2373 33.8487 81.7961 41.1875 92.8512 41.1875C94.9406 41.1875 96.9766 40.9253 98.9715 40.4333Z" fill="#65569F" fill-opacity="0.8"/>
</svg>
