<svg width="20" height="20" viewBox="0 0 20 20" fill="none" xmlns="http://www.w3.org/2000/svg">
<path d="M11.9473 13.2764C11.937 13.2661 11.9259 13.2654 11.9138 13.2743C9.46658 15.1138 6.1001 15.0952 3.68364 13.2483C0.917956 11.1343 0.179696 7.28167 1.98687 4.29042C3.52813 1.73862 6.57299 0.482363 9.46074 1.19992C13.7353 2.26246 15.9071 7.05133 13.8701 10.9809C13.7109 11.2877 13.4965 11.6099 13.2858 11.9134C13.2741 11.9304 13.2755 11.9462 13.29 11.9607C15.0662 13.7355 16.8412 15.5104 18.6149 17.2856C18.7703 17.4406 18.8708 17.5692 18.9164 17.6714C19.272 18.4633 18.4812 19.2504 17.6893 18.9245C17.5867 18.8821 17.4703 18.7963 17.3401 18.6671C15.5653 16.9086 13.7677 15.1117 11.9473 13.2764ZM12.755 7.82356C12.755 6.51476 12.2351 5.25957 11.3097 4.33411C10.3842 3.40865 9.12902 2.88874 7.82023 2.88874C6.51143 2.88874 5.25624 3.40865 4.33078 4.33411C3.40533 5.25957 2.88541 6.51476 2.88541 7.82356C2.88541 9.13235 3.40533 10.3875 4.33078 11.313C5.25624 12.2385 6.51143 12.7584 7.82023 12.7584C9.12902 12.7584 10.3842 12.2385 11.3097 11.313C12.2351 10.3875 12.755 9.13235 12.755 7.82356Z" fill="white"/>
<path fill-rule="evenodd" clip-rule="evenodd" d="M3.56219 13.4071C0.715582 11.2314 -0.0443356 7.26573 1.81568 4.187C3.40231 1.56011 6.53613 0.267122 9.50898 1.00583C13.9091 2.09957 16.1441 7.02869 14.0477 11.073C13.9023 11.3531 13.7142 11.6428 13.5275 11.9152C15.2717 13.6581 17.0147 15.4011 18.7564 17.1442C18.9157 17.3032 19.0378 17.4528 19.099 17.5899C19.5313 18.5534 18.5652 19.5013 17.6132 19.1095C17.476 19.0527 17.3375 18.9462 17.1993 18.8092C15.4586 17.0844 13.696 15.3228 11.9114 13.5242C9.40365 15.3264 6.0098 15.2779 3.56219 13.4071ZM11.9138 13.2743C9.46658 15.1138 6.1001 15.0952 3.68364 13.2483C0.917956 11.1343 0.179696 7.28167 1.98687 4.29042C3.52813 1.73862 6.57299 0.482363 9.46074 1.19992C13.7353 2.26246 15.9071 7.05133 13.8701 10.9809C13.7109 11.2877 13.4965 11.6099 13.2858 11.9134C13.2741 11.9304 13.2755 11.9462 13.29 11.9607M11.9473 13.2764C13.7677 15.1117 15.5653 16.9086 17.3401 18.6671C17.4703 18.7963 17.5867 18.8821 17.6893 18.9245C18.4812 19.2504 19.272 18.4633 18.9164 17.6714M11.9473 13.2764C11.937 13.2661 11.9259 13.2654 11.9138 13.2743L11.9473 13.2764ZM12.555 7.82356C12.555 6.56781 12.0562 5.36349 11.1683 4.47553C10.2803 3.58758 9.07598 3.08874 7.82023 3.08874C6.56448 3.08874 5.36016 3.58758 4.4722 4.47553C3.58425 5.36349 3.08541 6.56781 3.08541 7.82356C3.08541 9.07931 3.58425 10.2836 4.4722 11.1716C5.36016 12.0595 6.56448 12.5584 7.82023 12.5584C9.07598 12.5584 10.2803 12.0595 11.1683 11.1716C12.0562 10.2836 12.555 9.07931 12.555 7.82356ZM11.3097 4.33411C12.2351 5.25957 12.755 6.51476 12.755 7.82356C12.755 9.13235 12.2351 10.3875 11.3097 11.313C10.3842 12.2385 9.12902 12.7584 7.82023 12.7584C6.51143 12.7584 5.25624 12.2385 4.33078 11.313C3.40533 10.3875 2.88541 9.13235 2.88541 7.82356C2.88541 6.51476 3.40533 5.25957 4.33078 4.33411C5.25624 3.40865 6.51143 2.88874 7.82023 2.88874C9.12902 2.88874 10.3842 3.40865 11.3097 4.33411Z" fill="white"/>
</svg>
