<svg width="17" height="18" viewBox="0 0 17 18" fill="none" xmlns="http://www.w3.org/2000/svg">
<path d="M6.62559 15.3751C7.12506 15.8159 7.78115 16.0834 8.49972 16.0834C9.21828 16.0834 9.87437 15.8159 10.3738 15.3751M12.7497 6.16675V1.91675M10.6247 4.04175H14.8747M9.20805 1.97617C8.97553 1.93687 8.73866 1.91675 8.49972 1.91675C7.37255 1.91675 6.29154 2.36451 5.49451 3.16154C4.69748 3.95857 4.24972 5.03958 4.24972 6.16675C4.24972 8.35563 3.69755 9.8543 3.08073 10.8456C2.56044 11.6817 2.30028 12.0998 2.30982 12.2165C2.32039 12.3456 2.34774 12.3948 2.45181 12.472C2.54579 12.5417 2.96947 12.5417 3.81682 12.5417H13.1826C14.0299 12.5417 14.4536 12.5417 14.5476 12.472C14.6516 12.3948 14.679 12.3456 14.6896 12.2165C14.6991 12.0998 14.4389 11.6817 13.9186 10.8454C13.5701 10.2852 13.2422 9.56308 13.0229 8.64591" stroke="#B04025" stroke-width="1.66667" stroke-linecap="round" stroke-linejoin="round"/>
</svg>
