<svg width="1000" height="1000" viewBox="0 0 1000 1000" fill="none" xmlns="http://www.w3.org/2000/svg">
<rect width="1000" height="1000" rx="50" fill="url(#paint0_linear_7944_14157)"/>
<rect width="1000" height="1000" rx="50" fill="white"/>
<rect width="1000" height="1000" rx="50" fill="url(#paint1_linear_7944_14157)"/>
<path fill-rule="evenodd" clip-rule="evenodd" d="M227.659 321.107C287.802 260.964 385.25 260.964 445.393 321.107C478.333 354.048 493.009 359.136 500.578 359.136C508.148 359.136 522.824 354.048 555.764 321.107C615.112 261.759 714.168 261.761 773.509 321.118C833.592 381.252 833.608 478.729 773.498 538.84L609.445 702.893C549.302 763.036 451.855 763.036 391.712 702.893L227.659 538.84C167.517 478.698 167.517 381.25 227.659 321.107ZM426.721 339.779C376.89 289.948 296.162 289.948 246.331 339.779C196.5 389.609 196.5 470.338 246.331 520.169L410.383 684.221C460.214 734.052 540.943 734.052 590.773 684.221L754.826 520.169C804.62 470.375 804.616 389.611 754.83 339.783C705.45 290.828 623.768 290.446 574.436 339.779C541.647 372.567 520.035 385.542 500.578 385.542C481.122 385.542 459.51 372.567 426.721 339.779ZM391.712 374.788C361.216 344.292 311.836 344.292 281.34 374.788C250.844 405.284 250.844 454.664 281.34 485.16L445.393 649.212C475.888 679.708 525.269 679.708 555.764 649.212C587.398 617.578 587.21 571.263 554.607 538.66C525.012 509.065 509.828 472.07 508.902 434.683C461.848 438.867 422.868 405.944 391.712 374.788ZM262.669 356.116C303.476 315.309 369.576 315.309 410.383 356.116C448.337 394.07 484.702 415.535 537.494 401.057C533.419 445.739 539.87 486.58 573.278 519.988C615.874 562.584 616.699 625.621 574.436 667.884C533.628 708.691 467.529 708.691 426.721 667.884L262.669 503.831C221.861 463.023 221.861 396.924 262.669 356.116ZM609.445 374.788C576.84 407.393 576.655 453.346 608.287 484.979C628.747 505.438 642.678 529.652 649.756 555.221L719.817 485.16C750.267 454.71 750.284 405.286 719.81 374.782C689.743 344.676 639.515 344.718 609.445 374.788ZM590.773 356.116C631.016 315.873 698.246 315.824 738.485 356.113C779.261 396.924 779.256 463.064 738.488 503.831L630.899 611.421L628.238 583.52C625.509 554.899 612.636 526.67 589.616 503.65C547.354 461.388 548.177 398.713 590.773 356.116Z" fill="#B3B4DD"/>
<path fill-rule="evenodd" clip-rule="evenodd" d="M236.995 330.443C291.982 275.456 381.07 275.456 436.057 330.443C468.921 363.308 487.065 372.339 500.578 372.339C514.092 372.339 532.235 363.308 565.1 330.443C619.397 276.145 709.864 276.237 764.169 330.45C819.104 385.431 819.114 474.552 764.162 529.505L600.109 693.557C545.122 748.544 456.034 748.544 401.048 693.557L236.995 529.505C182.008 474.518 182.008 385.43 236.995 330.443ZM641.381 582.267L729.153 494.495C764.762 458.886 764.773 401.102 729.145 365.445C693.493 329.8 635.758 329.803 600.109 365.452C562.508 403.053 562.004 457.367 598.952 494.315C624.083 519.446 638.353 550.51 641.381 582.267ZM522.616 418.827C519.052 457.902 532.589 497.971 563.943 529.324C601.542 566.923 602.048 621.6 565.1 658.548C529.448 694.2 471.708 694.2 436.057 658.548L272.004 494.495C236.353 458.844 236.353 401.104 272.004 365.452C307.656 329.8 365.396 329.8 401.048 365.452C432.848 397.252 474.737 431.958 522.616 418.827Z" fill="#3B3457"/>
<defs>
<linearGradient id="paint0_linear_7944_14157" x1="427.463" y1="2.53943e-05" x2="-307.384" y2="655.306" gradientUnits="userSpaceOnUse">
<stop stop-color="#E5E2F9"/>
<stop offset="0.494792" stop-color="#EDD7DD" stop-opacity="0.6"/>
<stop offset="0.973958" stop-color="#FFF7F9"/>
</linearGradient>
<linearGradient id="paint1_linear_7944_14157" x1="427.463" y1="2.53943e-05" x2="-307.384" y2="655.306" gradientUnits="userSpaceOnUse">
<stop stop-color="#E5E2F9"/>
<stop offset="0.494792" stop-color="#EDD7DD" stop-opacity="0.6"/>
<stop offset="0.973958" stop-color="#FFF7F9"/>
</linearGradient>
</defs>
</svg>
