<svg width="266" height="34" viewBox="0 0 266 34" fill="none" xmlns="http://www.w3.org/2000/svg">
<path d="M20.021 14.0352C19.4694 13.2011 18.6421 12.512 17.539 11.968C16.4359 11.3877 15.2593 11.0976 14.0092 11.0976C12.6487 11.0976 11.4353 11.3515 10.369 11.8592C9.33944 12.3669 8.45697 13.056 7.72158 13.9264C6.98619 14.7605 6.41627 15.7397 6.0118 16.864C5.64411 17.9883 5.46026 19.1669 5.46026 20.4C5.46026 21.6331 5.64411 22.8117 6.0118 23.936C6.41627 25.0603 6.98619 26.0576 7.72158 26.928C8.45697 27.7621 9.35782 28.4331 10.4241 28.9408C11.4904 29.4485 12.7038 29.7024 14.0643 29.7024C15.388 29.7024 16.583 29.4485 17.6493 28.9408C18.7524 28.4331 19.6533 27.744 20.3519 26.8736L23.8266 29.9744C22.7235 31.2437 21.3447 32.2411 19.69 32.9664C18.0354 33.6555 16.1602 34 14.0643 34C12.042 34 10.1667 33.6736 8.43859 33.0208C6.74719 32.368 5.27641 31.4613 4.02625 30.3008C2.77609 29.104 1.78332 27.6715 1.04793 26.0032C0.34931 24.3349 0 22.4672 0 20.4C0 18.3691 0.34931 16.5195 1.04793 14.8512C1.74655 13.1829 2.72094 11.7504 3.9711 10.5536C5.22126 9.3568 6.69204 8.432 8.38343 7.7792C10.1116 7.1264 11.9685 6.8 13.954 6.8C15.7925 6.8 17.6126 7.16267 19.4143 7.888C21.2527 8.61333 22.7051 9.66507 23.7714 11.0432L20.021 14.0352Z" fill="#65569F"/>
<path d="M49.0398 33.2928C48.9663 32.64 48.9111 31.9147 48.8743 31.1168C48.8376 30.2827 48.8192 29.5936 48.8192 29.0496H48.7089C48.047 30.4277 46.9255 31.6064 45.3445 32.5856C43.8001 33.5285 42.072 34 40.16 34C38.4686 34 36.9978 33.728 35.7476 33.184C34.5343 32.64 33.5231 31.8965 32.7142 30.9536C31.942 29.9744 31.3537 28.8501 30.9492 27.5808C30.5815 26.3115 30.3977 24.9515 30.3977 23.5008V7.5072H35.5822V21.76C35.5822 22.8117 35.6557 23.8272 35.8028 24.8064C35.9866 25.7493 36.2992 26.5835 36.7404 27.3088C37.1817 28.0341 37.7883 28.6144 38.5605 29.0496C39.3327 29.4848 40.3254 29.7024 41.5388 29.7024C43.6347 29.7024 45.3261 28.9408 46.613 27.4176C47.8999 25.8581 48.5434 23.7909 48.5434 21.216V7.5072H53.7279V27.744C53.7279 28.4331 53.7463 29.3216 53.7831 30.4096C53.8198 31.4976 53.875 32.4587 53.9485 33.2928H49.0398Z" fill="#65569F"/>
<path d="M64.3744 13.056C64.3744 12.3669 64.356 11.4784 64.3192 10.3904C64.2825 9.3024 64.2273 8.34133 64.1538 7.5072H69.0625C69.136 8.16 69.1912 8.9216 69.2279 9.792C69.2647 10.6261 69.2831 11.3152 69.2831 11.8592H69.4485C70.1839 10.336 71.2503 9.12107 72.6475 8.2144C74.0815 7.27147 75.681 6.8 77.4459 6.8C78.2548 6.8 78.9351 6.87253 79.4866 7.0176L79.266 11.7504C78.5306 11.5691 77.7401 11.4784 76.8944 11.4784C75.6442 11.4784 74.5595 11.7141 73.6403 12.1856C72.721 12.6208 71.9489 13.2192 71.3238 13.9808C70.7355 14.7424 70.2943 15.6309 70.0001 16.6464C69.7059 17.6256 69.5589 18.6592 69.5589 19.7472V33.2928H64.3744V13.056Z" fill="#65569F"/>
<path d="M104.181 18.1152C104.144 17.0997 103.96 16.1568 103.629 15.2864C103.335 14.3797 102.875 13.6 102.25 12.9472C101.662 12.2944 100.908 11.7867 99.9889 11.424C99.1064 11.0251 98.0585 10.8256 96.8451 10.8256C95.742 10.8256 94.6941 11.0251 93.7013 11.424C92.7453 11.7867 91.8996 12.2944 91.1642 12.9472C90.4656 13.6 89.8773 14.3797 89.3993 15.2864C88.958 16.1568 88.7007 17.0997 88.6271 18.1152H104.181ZM109.42 20.1824C109.42 20.4725 109.42 20.7627 109.42 21.0528C109.42 21.3429 109.402 21.6331 109.365 21.9232H88.6271C88.6639 23.0112 88.9029 24.0448 89.3441 25.024C89.8221 25.9669 90.4472 26.8011 91.2194 27.5264C91.9915 28.2155 92.874 28.7595 93.8668 29.1584C94.8963 29.5573 95.981 29.7568 97.1208 29.7568C98.8858 29.7568 100.412 29.376 101.699 28.6144C102.986 27.8528 103.997 26.928 104.732 25.84L108.372 28.7232C106.975 30.5365 105.32 31.8784 103.408 32.7488C101.533 33.5829 99.4373 34 97.1208 34C95.1353 34 93.2968 33.6736 91.6054 33.0208C89.9141 32.368 88.4617 31.4613 87.2483 30.3008C86.0349 29.104 85.0789 27.6715 84.3802 26.0032C83.6816 24.3349 83.3323 22.4853 83.3323 20.4544C83.3323 18.4597 83.6632 16.6283 84.3251 14.96C85.0237 13.2555 85.9797 11.8048 87.1931 10.608C88.4065 9.4112 89.8405 8.4864 91.4951 7.8336C93.1498 7.14453 94.9331 6.8 96.8451 6.8C98.7571 6.8 100.485 7.10827 102.03 7.7248C103.611 8.34133 104.934 9.22987 106.001 10.3904C107.104 11.5509 107.949 12.9653 108.538 14.6336C109.126 16.2656 109.42 18.1152 109.42 20.1824Z" fill="#65569F"/>
<path d="M131.224 13.9711C130.634 13.0251 129.804 12.2611 128.735 11.679C127.665 11.0605 126.466 10.7512 125.138 10.7512C124.548 10.7512 123.958 10.824 123.367 10.9695C122.777 11.0787 122.242 11.2788 121.763 11.5698C121.32 11.8245 120.951 12.1701 120.656 12.6067C120.398 13.007 120.269 13.5163 120.269 14.1348C120.269 15.2263 120.767 16.0449 121.763 16.5907C122.759 17.1001 124.253 17.573 126.245 18.0096C127.499 18.3007 128.661 18.6463 129.73 19.0466C130.8 19.4468 131.722 19.9561 132.497 20.5746C133.309 21.1568 133.936 21.8662 134.378 22.7031C134.821 23.5399 135.042 24.5222 135.042 25.6501C135.042 27.1782 134.747 28.4698 134.157 29.5249C133.567 30.58 132.774 31.4532 131.778 32.1445C130.819 32.7994 129.712 33.2723 128.458 33.5634C127.204 33.8545 125.913 34 124.585 34C122.593 34 120.638 33.618 118.72 32.8539C116.838 32.0899 115.271 30.9256 114.016 29.3612L117.724 26.2504C118.424 27.2691 119.384 28.1241 120.601 28.8154C121.855 29.5067 123.22 29.8523 124.695 29.8523C125.359 29.8523 125.986 29.7978 126.577 29.6886C127.204 29.5431 127.757 29.3248 128.237 29.0337C128.753 28.7426 129.159 28.3606 129.454 27.8876C129.749 27.4147 129.896 26.8143 129.896 26.0867C129.896 24.886 129.306 23.9946 128.126 23.4125C126.982 22.8304 125.286 22.2846 123.035 21.7753C122.15 21.557 121.246 21.3023 120.324 21.0112C119.439 20.6838 118.627 20.2472 117.89 19.7014C117.152 19.1557 116.543 18.4826 116.064 17.6822C115.621 16.8454 115.4 15.8266 115.4 14.626C115.4 13.2434 115.676 12.061 116.23 11.0787C116.82 10.0599 117.576 9.24131 118.498 8.62279C119.42 7.9679 120.472 7.49492 121.652 7.20385C122.833 6.87641 124.05 6.71268 125.304 6.71268C127.185 6.71268 128.993 7.07651 130.726 7.80417C132.497 8.53183 133.862 9.58694 134.821 10.9695L131.224 13.9711Z" fill="#888888"/>
<path d="M156.142 11.6244H149.17V25.1043C149.17 26.6688 149.465 27.7967 150.056 28.488C150.646 29.1429 151.586 29.4703 152.878 29.4703C153.357 29.4703 153.873 29.4157 154.427 29.3066C154.98 29.1974 155.478 29.0337 155.921 28.8154L156.087 33.0177C155.46 33.236 154.759 33.3997 153.984 33.5088C153.246 33.6544 152.472 33.7271 151.66 33.7271C149.189 33.7271 147.289 33.054 145.961 31.7079C144.67 30.3617 144.025 28.3424 144.025 25.6501V11.6244H138.989V7.42215H144.025V0H149.17V7.42215H156.142V11.6244Z" fill="#888888"/>
<path d="M179.497 16.5361C179.497 14.6078 178.907 13.1889 177.727 12.2793C176.546 11.3333 174.979 10.8604 173.024 10.8604C171.548 10.8604 170.146 11.1514 168.819 11.7335C167.527 12.2793 166.439 12.9888 165.554 13.862L162.787 10.5875C164.078 9.38684 165.646 8.44088 167.491 7.7496C169.372 7.05832 171.382 6.71268 173.522 6.71268C175.403 6.71268 177.026 6.98555 178.391 7.5313C179.793 8.04066 180.936 8.75013 181.821 9.65971C182.707 10.5693 183.371 11.6426 183.813 12.8796C184.256 14.1166 184.477 15.4446 184.477 16.8636V28.1605C184.477 29.0337 184.496 29.9615 184.533 30.9438C184.606 31.8898 184.717 32.672 184.865 33.2905H180.161C179.866 32.0535 179.719 30.8165 179.719 29.5795H179.553C178.594 30.962 177.376 32.0353 175.901 32.7994C174.462 33.5634 172.747 33.9454 170.755 33.9454C169.722 33.9454 168.634 33.7999 167.491 33.5088C166.384 33.2542 165.37 32.8176 164.447 32.199C163.525 31.5805 162.751 30.7619 162.123 29.7432C161.533 28.7245 161.238 27.4692 161.238 25.9775C161.238 24.0128 161.773 22.4666 162.843 21.3387C163.912 20.1744 165.314 19.3012 167.048 18.7191C168.782 18.1006 170.737 17.7004 172.913 17.5185C175.089 17.3365 177.284 17.2456 179.497 17.2456V16.5361ZM178.225 20.9567C176.934 20.9567 175.587 21.0112 174.186 21.1204C172.821 21.2295 171.567 21.4478 170.423 21.7753C169.316 22.1027 168.394 22.5939 167.657 23.2488C166.919 23.9037 166.55 24.7769 166.55 25.8684C166.55 26.6324 166.697 27.2691 166.993 27.7785C167.325 28.2879 167.749 28.7063 168.265 29.0337C168.782 29.3612 169.353 29.5976 169.98 29.7432C170.608 29.8523 171.253 29.9069 171.917 29.9069C174.352 29.9069 176.214 29.1974 177.506 27.7785C178.833 26.3232 179.497 24.504 179.497 22.321V20.9567H178.225Z" fill="#888888"/>
<path d="M207.12 11.6244H200.149V25.1043C200.149 26.6688 200.444 27.7967 201.034 28.488C201.624 29.1429 202.565 29.4703 203.856 29.4703C204.335 29.4703 204.852 29.4157 205.405 29.3066C205.958 29.1974 206.456 29.0337 206.899 28.8154L207.065 33.0177C206.438 33.236 205.737 33.3997 204.962 33.5088C204.225 33.6544 203.45 33.7271 202.638 33.7271C200.167 33.7271 198.267 33.054 196.939 31.7079C195.648 30.3617 195.003 28.3424 195.003 25.6501V11.6244H189.968V7.42215H195.003V0H200.149V7.42215H207.12V11.6244Z" fill="#888888"/>
<path d="M232.634 33.2905C232.56 32.6356 232.504 31.908 232.468 31.1075C232.431 30.2707 232.412 29.5795 232.412 29.0337H232.302C231.638 30.4163 230.513 31.5987 228.926 32.5811C227.377 33.527 225.643 34 223.725 34C222.028 34 220.553 33.7271 219.299 33.1814C218.081 32.6356 217.067 31.8898 216.256 30.9438C215.481 29.9615 214.891 28.8336 214.485 27.5602C214.116 26.2868 213.932 24.9224 213.932 23.4671V7.42215H219.133V21.7207C219.133 22.7758 219.206 23.7945 219.354 24.7769C219.538 25.7228 219.852 26.5597 220.295 27.2873C220.737 28.015 221.346 28.5971 222.121 29.0337C222.895 29.4703 223.891 29.6886 225.109 29.6886C227.211 29.6886 228.908 28.9246 230.199 27.3965C231.49 25.832 232.136 23.7582 232.136 21.175V7.42215H237.337V27.7239C237.337 28.4152 237.355 29.3066 237.392 30.3981C237.429 31.4896 237.484 32.4537 237.558 33.2905H232.634Z" fill="#888888"/>
<path d="M262.182 13.9711C261.592 13.0251 260.762 12.2611 259.692 11.679C258.623 11.0605 257.424 10.7512 256.096 10.7512C255.506 10.7512 254.915 10.824 254.325 10.9695C253.735 11.0787 253.2 11.2788 252.721 11.5698C252.278 11.8245 251.909 12.1701 251.614 12.6067C251.356 13.007 251.227 13.5163 251.227 14.1348C251.227 15.2263 251.725 16.0449 252.721 16.5907C253.716 17.1001 255.21 17.573 257.202 18.0096C258.457 18.3007 259.618 18.6463 260.688 19.0466C261.758 19.4468 262.68 19.9561 263.455 20.5746C264.266 21.1568 264.893 21.8662 265.336 22.7031C265.779 23.5399 266 24.5222 266 25.6501C266 27.1782 265.705 28.4698 265.115 29.5249C264.524 30.58 263.731 31.4532 262.735 32.1445C261.776 32.7994 260.67 33.2723 259.416 33.5634C258.161 33.8545 256.87 34 255.542 34C253.55 34 251.595 33.618 249.677 32.8539C247.796 32.0899 246.228 30.9256 244.974 29.3612L248.681 26.2504C249.382 27.2691 250.341 28.1241 251.559 28.8154C252.813 29.5067 254.178 29.8523 255.653 29.8523C256.317 29.8523 256.944 29.7978 257.534 29.6886C258.161 29.5431 258.715 29.3248 259.194 29.0337C259.711 28.7426 260.116 28.3606 260.412 27.8876C260.707 27.4147 260.854 26.8143 260.854 26.0867C260.854 24.886 260.264 23.9946 259.084 23.4125C257.94 22.8304 256.243 22.2846 253.993 21.7753C253.108 21.557 252.204 21.3023 251.282 21.0112C250.397 20.6838 249.585 20.2472 248.847 19.7014C248.11 19.1557 247.501 18.4826 247.021 17.6822C246.579 16.8454 246.357 15.8266 246.357 14.626C246.357 13.2434 246.634 12.061 247.187 11.0787C247.778 10.0599 248.534 9.24131 249.456 8.62279C250.378 7.9679 251.429 7.49492 252.61 7.20385C253.79 6.87641 255.008 6.71268 256.262 6.71268C258.143 6.71268 259.95 7.07651 261.684 7.80417C263.455 8.53183 264.82 9.58694 265.779 10.9695L262.182 13.9711Z" fill="#888888"/>
</svg>
